<svg width="121" height="14" viewBox="0 0 121 14" fill="none" xmlns="http://www.w3.org/2000/svg">
<path d="M0.66 14V-9.53674e-07H7.02C8.54 -9.53674e-07 9.88 0.293333 11.04 0.88C12.2 1.45333 13.1067 2.26 13.76 3.3C14.4133 4.34 14.74 5.57333 14.74 7C14.74 8.41333 14.4133 9.64667 13.76 10.7C13.1067 11.74 12.2 12.5533 11.04 13.14C9.88 13.7133 8.54 14 7.02 14H0.66ZM3.9 11.34H6.86C7.79333 11.34 8.6 11.1667 9.28 10.82C9.97333 10.46 10.5067 9.95333 10.88 9.3C11.2667 8.64667 11.46 7.88 11.46 7C11.46 6.10667 11.2667 5.34 10.88 4.7C10.5067 4.04667 9.97333 3.54667 9.28 3.2C8.6 2.84 7.79333 2.66 6.86 2.66H3.9V11.34ZM20.1634 5.64H26.9034V8.16H20.1634V5.64ZM20.4034 11.4H28.0234V14H17.1834V-9.53674e-07H27.7634V2.6H20.4034V11.4ZM28.7614 14L35.0014 -9.53674e-07H38.2014L44.4614 14H41.0614L35.9414 1.64H37.2214L32.0814 14H28.7614ZM31.8814 11L32.7414 8.54H39.9414L40.8214 11H31.8814ZM51.578 14V-9.53674e-07H57.638C58.8913 -9.53674e-07 59.9713 0.206666 60.878 0.619999C61.7846 1.02 62.4846 1.6 62.978 2.36C63.4713 3.12 63.718 4.02667 63.718 5.08C63.718 6.12 63.4713 7.02 62.978 7.78C62.4846 8.54 61.7846 9.12667 60.878 9.54C59.9713 9.94 58.8913 10.14 57.638 10.14H53.378L54.818 8.68V14H51.578ZM54.818 9.04L53.378 7.5H57.458C58.458 7.5 59.2046 7.28667 59.698 6.86C60.1913 6.43333 60.438 5.84 60.438 5.08C60.438 4.30667 60.1913 3.70667 59.698 3.28C59.2046 2.85333 58.458 2.64 57.458 2.64H53.378L54.818 1.1V9.04ZM66.0311 14V-9.53674e-07H72.0911C73.3444 -9.53674e-07 74.4244 0.206666 75.3311 0.619999C76.2378 1.02 76.9378 1.6 77.4311 2.36C77.9244 3.12 78.1711 4.02667 78.1711 5.08C78.1711 6.12 77.9244 7.02 77.4311 7.78C76.9378 8.52667 76.2378 9.1 75.3311 9.5C74.4244 9.9 73.3444 10.1 72.0911 10.1H67.8311L69.2711 8.68V14H66.0311ZM74.9311 14L71.4311 8.92H74.8911L78.4311 14H74.9311ZM69.2711 9.04L67.8311 7.52H71.9111C72.9111 7.52 73.6578 7.30667 74.1511 6.88C74.6444 6.44 74.8911 5.84 74.8911 5.08C74.8911 4.30667 74.6444 3.70667 74.1511 3.28C73.6578 2.85333 72.9111 2.64 71.9111 2.64H67.8311L69.2711 1.1V9.04ZM80.7381 14V-9.53674e-07H83.9781V14H80.7381ZM87.3006 14V-9.53674e-07H89.9806L95.9406 9.88H94.5206L100.381 -9.53674e-07H103.041L103.081 14H100.041L100.021 4.66H100.581L95.9006 12.52H94.4406L89.6606 4.66H90.3406V14H87.3006ZM104.562 14L110.802 -9.53674e-07H114.002L120.262 14H116.862L111.742 1.64H113.022L107.882 14H104.562ZM107.682 11L108.542 8.54H115.742L116.622 11H107.682Z" fill="white"/>
</svg>
