<svg width="26" height="22" viewBox="0 0 26 22" fill="none" xmlns="http://www.w3.org/2000/svg">
<path d="M17.7923 8.21126C17.7259 8.14432 17.6469 8.09119 17.5599 8.05493C17.4729 8.01867 17.3795 8 17.2852 8C17.1909 8 17.0976 8.01867 17.0106 8.05493C16.9235 8.09119 16.8445 8.14432 16.7781 8.21126L13.5071 11.4823C13.4407 11.5493 13.3617 11.6024 13.2747 11.6387C13.1876 11.6749 13.0943 11.6936 13 11.6936C12.9057 11.6936 12.8124 11.6749 12.7253 11.6387C12.6383 11.6024 12.5593 11.5493 12.4929 11.4823L9.22186 8.21126C9.15546 8.14432 9.07647 8.09119 8.98944 8.05493C8.9024 8.01867 8.80905 8 8.71477 8C8.62049 8 8.52714 8.01867 8.4401 8.05493C8.35307 8.09119 8.27408 8.14432 8.20769 8.21126C8.07466 8.34508 8 8.52609 8 8.71477C8 8.90346 8.07466 9.08447 8.20769 9.21829L11.4859 12.4965C11.8876 12.8977 12.4322 13.1231 13 13.1231C13.5678 13.1231 14.1124 12.8977 14.5141 12.4965L17.7923 9.21829C17.9253 9.08447 18 8.90346 18 8.71477C18 8.52609 17.9253 8.34508 17.7923 8.21126Z" fill="white"/>
</svg>
